<?xml version="1.0" encoding="UTF-8"?>
<svg xmlns="http://www.w3.org/2000/svg" xmlns:xlink="http://www.w3.org/1999/xlink" width="10px" height="11px" viewBox="0 0 10 11" version="1.1">
<g id="surface1">
<path style=" stroke:none;fill-rule:nonzero;fill:rgb(0%,0%,0%);fill-opacity:1;" d="M 5.980469 8.9375 L 6.519531 8.9375 C 6.664062 8.9375 6.785156 8.820312 6.785156 8.679688 L 6.785156 4.039062 C 6.785156 3.898438 6.664062 3.78125 6.519531 3.78125 L 5.980469 3.78125 C 5.835938 3.78125 5.714844 3.898438 5.714844 4.039062 L 5.714844 8.679688 C 5.714844 8.820312 5.835938 8.9375 5.980469 8.9375 Z M 9.644531 1.71875 L 7.804688 1.71875 L 7.042969 0.5 C 6.851562 0.191406 6.5 0 6.125 0 L 3.875 0 C 3.5 0 3.148438 0.191406 2.957031 0.5 L 2.195312 1.71875 L 0.355469 1.71875 C 0.160156 1.71875 0 1.871094 0 2.0625 L 0 2.40625 C 0 2.597656 0.160156 2.75 0.355469 2.75 L 0.714844 2.75 L 0.714844 9.96875 C 0.714844 10.539062 1.195312 11 1.785156 11 L 8.214844 11 C 8.804688 11 9.285156 10.539062 9.285156 9.96875 L 9.285156 2.75 L 9.644531 2.75 C 9.839844 2.75 10 2.597656 10 2.40625 L 10 2.0625 C 10 1.871094 9.839844 1.71875 9.644531 1.71875 Z M 3.835938 1.09375 C 3.859375 1.054688 3.902344 1.03125 3.949219 1.03125 L 6.050781 1.03125 C 6.097656 1.03125 6.140625 1.054688 6.164062 1.09375 L 6.554688 1.71875 L 3.445312 1.71875 Z M 8.214844 9.96875 L 1.785156 9.96875 L 1.785156 2.75 L 8.214844 2.75 Z M 3.480469 8.9375 L 4.019531 8.9375 C 4.164062 8.9375 4.285156 8.820312 4.285156 8.679688 L 4.285156 4.039062 C 4.285156 3.898438 4.164062 3.78125 4.019531 3.78125 L 3.480469 3.78125 C 3.335938 3.78125 3.214844 3.898438 3.214844 4.039062 L 3.214844 8.679688 C 3.214844 8.820312 3.335938 8.9375 3.480469 8.9375 Z M 3.480469 8.9375 "/>
</g>
</svg>
